<svg width="22" height="35" viewBox="0 0 22 35" fill="none" xmlns="http://www.w3.org/2000/svg">
<path d="M9.55266 28.9006C10.3236 28.761 11.2191 28.7282 12.1052 28.7755C12.9904 28.8228 13.8507 28.9492 14.5477 29.1196C14.8964 29.2048 15.1976 29.2994 15.4372 29.3974C15.5792 29.4554 15.69 29.5112 15.7733 29.5611C15.8483 30.921 16.0358 32.2551 16.2649 33.5298C15.1955 33.9212 14.2272 34.0595 12.7065 34.0595C10.602 34.0595 9.3655 34.1149 8.4295 34.0325C8.43751 33.9202 8.44391 33.8056 8.44756 33.689C8.48242 32.5763 8.33028 31.2083 8.10192 29.7799C8.08368 29.6658 8.06452 29.5513 8.04517 29.4362C8.40201 29.1975 8.91588 29.0159 9.55266 28.9006ZM0.79882 23.4856C2.01257 24.1106 3.14411 24.2948 4.15654 24.1923C4.37561 25.01 4.79223 25.6863 5.27084 26.4032C5.82853 27.2386 6.48515 28.1497 7.13454 29.4821L7.18567 29.587C7.20417 29.6978 7.22266 29.808 7.24021 29.9178C7.46636 31.3323 7.60746 32.634 7.57528 33.6616C7.57271 33.7436 7.56845 33.8233 7.56369 33.9008C5.77026 33.6278 5.73625 32.693 2.28773 29.1283C1.06245 27.8617 0.662649 25.856 0.79882 23.4856ZM21.2806 18.8414C21.4647 22.657 21.3174 26.6294 21.1139 29.1283C20.7604 30.3203 19.9243 32.1735 17.0954 33.2137C16.8858 32.0221 16.7179 30.7959 16.6468 29.5582C17.5534 28.8361 19.39 26.4742 19.0117 20.7124C19.0912 20.6141 19.1723 20.5169 19.2551 20.4215C19.3656 20.2943 19.4789 20.1702 19.5948 20.0507L19.6822 19.9619C19.808 19.836 19.9342 19.7183 20.0603 19.6091C20.1019 19.5731 20.1433 19.5378 20.1848 19.5036C20.5534 19.2011 20.9212 18.9747 21.2806 18.8414ZM12.2891 7.01575C12.3561 7.03303 12.4575 7.07155 12.5932 7.1422C12.9038 7.30387 13.3152 7.59229 13.7625 7.9905C14.6572 8.78685 15.6375 9.9704 16.2073 11.3178L16.2296 11.3703L16.2645 11.4154C16.8481 12.1672 17.1537 13.1452 17.3648 14.3749C17.47 14.9875 17.5499 15.6492 17.6328 16.3647C17.7152 17.0769 17.8004 17.8408 17.9155 18.642L17.9648 19.0001C18.8384 25.6241 16.9533 28.119 16.1946 28.7968C16.0638 28.7206 15.9189 28.6517 15.7675 28.5898C15.4771 28.471 15.1325 28.3644 14.755 28.2721C13.9996 28.0875 13.085 27.9543 12.1518 27.9044C11.2196 27.8546 10.253 27.8871 9.39705 28.0421C8.54019 28.1972 7.76659 28.4762 7.15443 28.8977L7.09543 28.9384C6.45199 27.6149 5.81955 26.7181 5.28771 25.9227C4.71519 25.0654 4.32579 24.4004 4.1533 23.6335C4.61423 23.4978 5.04494 23.2942 5.43891 23.0431L5.56425 22.9634L5.63543 22.819C5.71967 22.6484 5.80216 22.4757 5.88414 22.3019C6.2614 21.5028 6.63892 20.677 7.1183 19.8724C8.197 21.4899 9.63255 22.5302 11.4732 23.5613C13.0484 22.6518 14.5727 21.6352 15.7315 20.1735C16.5615 19.1265 17.205 17.9776 17.5677 16.6964C17.442 15.6053 17.3249 14.5785 17.1812 13.7436C16.9928 12.6471 16.7509 11.8738 16.2645 11.2432C15.6777 9.89054 14.6963 8.74021 13.862 7.9971C13.4468 7.62738 13.0754 7.36689 12.8145 7.23117C12.6848 7.16361 12.558 7.10479 12.448 7.06287L12.3638 7.03054L12.3282 7.0232C12.3157 7.02062 12.3031 7.01812 12.2891 7.01575Z" fill="white"/>
<path d="M0.273438 17.7228C0.273438 16.3758 0.586742 15.1333 1.1441 14.0375C1.69346 12.9575 2.41521 12.1354 3.2075 11.6945C4.08355 11.2077 5.03494 10.7949 6.0197 10.481C6.3953 10.3612 6.77947 10.2532 7.17087 10.1571C7.24861 10.138 7.32651 10.1194 7.40455 10.1011C6.84419 9.37932 6.45045 8.55702 6.27469 7.67749C6.08348 6.7213 6.12572 5.75083 6.40035 4.85344C6.81219 3.5075 7.75429 2.35353 9.06412 1.58433C10.3827 0.809948 12.0008 0.458671 13.6874 0.65819C15.3894 0.85957 16.8928 1.59787 17.9155 2.74165C18.9331 3.87977 19.4592 5.41929 19.2848 7.11588C19.2532 7.42339 19.2007 7.72004 19.1283 8.00523C19.0575 8.28465 18.9668 8.55692 18.8574 8.82012C18.4447 9.81399 17.7658 10.6875 16.8407 11.3428C16.829 11.3511 16.8172 11.3594 16.8055 11.3677L16.7554 11.4034C16.7354 11.4177 16.7154 11.4319 16.6954 11.4461C16.6197 11.4999 16.544 11.5536 16.4679 11.6066C16.7281 11.7256 16.9957 11.8258 17.2704 11.9052C19.6404 12.5905 21.1297 13.9894 21.7807 15.9299C21.9924 16.5608 22.0233 17.1932 21.9246 17.8222C21.8251 18.4558 21.589 19.072 21.2478 19.637C21.1722 19.7622 21.0948 19.8829 21.0157 19.9993C20.9729 20.0622 20.9297 20.1237 20.886 20.1839L20.8486 20.235C20.8364 20.2516 20.8241 20.2681 20.8116 20.2847L20.7442 20.3714L20.6763 20.4544C20.3076 20.917 19.8952 21.3235 19.4594 21.6846C19.4079 22.6214 19.2607 23.5909 18.9801 24.5708C18.9665 24.6184 18.9528 24.6661 18.9388 24.7138C18.6714 25.6256 18.2627 26.5426 17.6824 27.4332C17.4252 27.828 17.1333 28.217 16.8056 28.5963C16.9944 31.8104 18.1072 34.6366 19.8874 34.6366H20.4591V34.0817C20.4591 31.3021 20.1728 28.4902 19.9555 26.3579C20.6584 25.1353 21.1358 23.871 21.4527 22.7627C21.9473 21.0328 22.0682 19.374 22.1461 17.5399L22.1416 17.4165C22.1223 16.8794 22.0901 16.3403 21.9244 15.846C21.1913 13.661 19.516 12.0655 16.972 11.2962C16.3021 11.0936 15.6914 10.7851 15.1688 10.3792C15.4958 10.17 15.7985 9.9251 16.0695 9.65106C17.0862 8.62298 17.5777 7.10792 17.2541 5.58947C17.2553 5.46315 17.2505 5.33644 17.2395 5.20959C17.1155 3.78418 16.179 2.56866 14.8299 2.05728C13.4683 1.54115 11.9497 1.77625 10.7627 2.65578C9.58027 3.5322 8.92314 4.90741 8.93556 6.33233C8.94557 7.48044 9.36391 8.5892 10.1034 9.45546C10.3087 9.69613 10.5293 9.91608 10.7615 10.1172C10.2954 10.2 9.83577 10.3093 9.38451 10.4441C8.77691 10.6255 8.18487 10.8567 7.62778 11.1361C6.64887 11.627 5.92048 12.2277 5.32297 13.0246C4.72553 13.8213 4.32794 14.7925 4.08178 16.0072C4.01747 16.3245 3.96475 16.6552 3.93295 16.9971C3.91425 17.1984 3.90187 17.4036 3.89616 17.6113L3.89392 17.693C3.88078 18.1076 3.87505 18.5287 3.80638 18.9469C3.73912 19.3567 3.61045 19.762 3.33537 20.1126C3.03357 20.4974 2.61236 20.6898 2.21979 20.7991C1.81085 20.913 1.39763 20.9355 1.11619 20.9345H0.273438V17.7228Z" fill="white"/>
</svg>
